inDegrees=yes
name=SYN01_S01_straightWalk_ik.mot
DataType=double
version=3
OpenSimVersion=4.5
endheader
time	pelvis_tilt	pelvis_list	pelvis_rotation	pelvis_tx	pelvis_ty	pelvis_tz	hip_flexion_r	hip_adduction_r	hip_rotation_r	knee_angle_r	knee_angle_r_beta	ankle_angle_r	subtalar_angle_r	mtp_angle_r	hip_flexion_l	hip_adduction_l	hip_rotation_l	knee_angle_l	knee_angle_l_beta	ankle_angle_l	subtalar_angle_l	mtp_angle_l	lumbar_extension	lumbar_bending	lumbar_rotation	arm_flex_r	arm_add_r	arm_rot_r	elbow_flex_r	pro_sup_r	wrist_flex_r	wrist_dev_r	arm_flex_l	arm_add_l	arm_rot_l	elbow_flex_l	pro_sup_l	wrist_flex_l	wrist_dev_l
3.37	-0.2367184730366896	0.2682618787802979	128.8227174474494	0	0.93	0	3.939110252063385	-6.104645675409078	-2.574376608916602	52.97466175522887	0.924582267759062	-6.322624813274151	0	0	27.5911590236731	-9.14072097281236	1.099637870734925e-16	41.62983029916555	0.7265776057669349	-4.767609472627404	0	0	0	0	0	0	0	0	0	0	0	0	0	0	0	0	0	0	0
3.38	-0.05942141795431439	0.05799943706128777	128.8239659413191	-2.326539372048597e-40	0.93	-1.652756398745542e-29	5.050802649756874	-6.158786075639471	-2.439859985405684	54.43103786762467	0.9500008260677639	-5.161573184155984	8.485909857265685e-14	3.217909864220357e-13	27.78641231241781	-9.163383784746262	1.100008533615265e-16	41.83693190339293	0.7301922106468648	-4.774920433820417	-4.367422900924567e-14	1.703162830453084e-14	-1.151015761731234e-38	1.001391749651236e-26	1.183046637155309e-24	-1.064165143739733e-17	6.637680739978412e-19	-1.276859183826151e-13	7.482541252993939e-15	0	5.155717840423629e-24	4.771630722742286e-24	-2.650587253836408e-14	-5.72239094250865e-14	-2.096694443360627e-13	0	0	4.153127101403628e-23	1.142307630938209e-23
3.39	0.1446948594526743	-0.1953458596050767	128.8238850062198	9.026803192338721e-45	0.93	6.412574365361526e-34	6.22160507436855	-6.192647103789821	-2.324776857202914	55.67558444426504	0.9717222615245623	-4.079858395419179	3.696884935233116e-21	-1.21580782960712e-27	27.89853476247239	-9.178139081216605	1.100008533615265e-16	41.94441839447452	0.732068203817654	-4.779805834278482	-3.751904830336633e-24	-2.883080479067149e-27	4.466036160381884e-43	-6.398420346713869e-29	-3.553600607509302e-30	3.318840908888323e-18	1.251745309508347e-27	1.210740746166229e-18	0	0	3.556292466421982e-28	-4.039230429789796e-28	-4.809588461509606e-18	-5.599084334468114e-18	-8.649719820621323e-18	0	0	-8.625755577269942e-28	-7.374088995292178e-29
3.4	0.3354470733486447	-0.4451641133343862	128.8212678820819	-8.057285669352658e-49	0.93	-5.723837047035574e-38	7.338043815811535	-6.222612001489233	-2.207809304874462	56.70627707727217	0.9897112415465863	-3.003803910921898	-5.312861648253044e-15	4.432806913183912e-22	27.96043198242853	-9.186845879192511	1.100008533615265e-16	42.0011639351576	0.7330586003383982	-4.782735375629972	7.371093923759914e-20	5.31134754586378e-22	4.673777888966351e-51	2.969252796114306e-19	-1.940457886883663e-27	-1.822041688824785e-14	-1.028923756207663e-22	2.945692761563187e-14	0	0	1.921210125765688e-19	-2.65553415959261e-19	-1.066350605263321e-15	-3.052284207194595e-14	-1.260002246523351e-14	0	0	-3.84442511562605e-19	-6.87406582410488e-19
3.41	0.5510391909231203	-0.7048537047256922	128.8283610212928	0	0.93	0	8.501480688744763	-6.221650333616378	-2.134711781226422	57.52830834018986	1.004058393638827	-2.064937237695094	0	0	27.99529043422098	-9.191952403497876	1.100008533615265e-16	42.03235195725985	0.7336029340112672	-4.784472050265617	0	0	0	0	0	0	0	0	0	0	0	0	0	0	0	0	0	0	0
3.42	0.7664905109491736	-0.9635267016863913	128.8313117986987	0	0.93	0	9.653632554911741	-6.21050967470694	-2.080150017493376	58.11289682435424	1.014261387456738	-1.209160171145534	0	0	28.02524633628858	-9.196444862889512	1.100008533615265e-16	42.05879129880861	0.7340643875733526	-4.7860096202423	0	0	0	0	0	0	0	0	0	1.039656878698842e-38	0	0	0	0	0	0	1.039656878698842e-38	0	0
3.43	0.978468634525031	-1.229337823520559	128.8372349135408	0	0.93	0	10.80492910228292	-6.184564911388608	-2.042715807340109	58.44702428702569	1.02009301180169	-0.4477243455122072	3.539099057897328e-17	-2.234428126724174e-23	28.05117668703467	-9.200384394410495	1.100008533615265e-16	42.0814998385791	0.7344607263606676	-4.787362605232762	-4.392835059563719e-19	-1.363720387773994e-23	0	2.688214643856133e-22	-3.038044775444454e-28	-3.071777582330675e-14	-3.75674693713571e-22	4.945995097174278e-14	4.445347548706984e-15	4.445314321916043e-15	6.341448541643083e-19	-1.591427162920517e-18	-4.609104970576171e-14	5.122713357708437e-14	1.044511980406208e-13	4.445183769898403e-15	4.445314313466232e-15	4.326487017154931e-19	2.361731311183921e-18
3.44	1.178876519718682	-1.481394259159073	128.8411064842702	0	0.93	0	11.93213545268639	-6.149297554905712	-2.031789445451065	58.53219426225239	1.021579508293238	0.2176052126278464	-1.779586346716488e-20	1.402915977772262e-27	28.07468091364367	-9.203980746198804	1.100008533615265e-16	42.10198839498116	0.7348183191288642	-4.788599921375721	-2.332209403185142e-21	-1.162534640780451e-26	0	-6.15368770956803e-28	-1.043746003972802e-29	1.990750187962273e-18	6.798610773758615e-27	2.631319436334806e-17	0	0	7.916178510051852e-27	-1.026264307875913e-28	3.907881270189149e-17	-1.352930275201191e-17	-3.540421067196954e-17	0	0	-6.22825500516773e-27	-1.83302355869786e-28
3.45	1.392753257623949	-1.738999036724826	128.8491551199412	0	0.93	0	13.05623720594803	-6.090722258807241	-2.053791216539225	58.3466734083464	1.018341558561467	0.7483625985419555	0	0	28.09438725634835	-9.206993428575645	1.100008533615265e-16	42.11915337621038	0.7351179045673569	-4.789635745384614	0	0	0	0	0	0	0	0	0	0	0	0	0	0	0	0	0	0	0
